<svg xmlns="http://www.w3.org/2000/svg" style="display:none">
  <symbol id="icon-home" viewBox="0 0 24 24">
    <path d="M4 11.5 L12 4.5 L20 11.5" />
    <path d="M6.5 10 V19.5 H17.5 V10" />
  </symbol>
  <symbol id="icon-calendar" viewBox="0 0 24 24">
    <path d="M5 6.5 H19 V19.5 H5 Z" />
    <path d="M5 10 H19" />
    <path d="M8.5 4 V7.5" />
    <path d="M15.5 4 V7.5" />
  </symbol>
  <symbol id="icon-envelope" viewBox="0 0 24 24">
    <path d="M4.5 6.5 H19.5 V17.5 H4.5 Z" />
    <path d="M4.5 6.5 L12 13 L19.5 6.5" />
  </symbol>
  <symbol id="icon-compass" viewBox="0 0 24 24">
    <circle cx="12" cy="12" r="8" />
    <path d="M12 7.5 L13.7 12 L12 16.5 L10.3 12 Z" />
  </symbol>
  <symbol id="icon-bed" viewBox="0 0 24 24">
    <path d="M3.5 18.5 V9.5 H10 V13" />
    <path d="M3.5 13 H20.5 V18.5" />
    <path d="M3.5 21 V18.5" />
    <path d="M20.5 21 V18.5" />
  </symbol>
  <symbol id="icon-gift" viewBox="0 0 24 24">
    <path d="M4 9.5 H20 V20 H4 Z" />
    <path d="M4 13.5 H20" />
    <path d="M12 9.5 V20" />
    <path d="M9 9.5 C8 7.5 9 5.5 11 5.5 C12 5.5 12 8 12 9.5" />
    <path d="M15 9.5 C16 7.5 15 5.5 13 5.5 C12 5.5 12 8 12 9.5" />
  </symbol>
  <symbol id="icon-gate" viewBox="0 0 24 24">
    <path d="M4 21 V5" />
    <path d="M20 21 V5" />
    <path d="M4 5 H20" />
    <path d="M4 12 H20" />
    <path d="M9 5 V21" />
    <path d="M15 5 V21" />
  </symbol>
  <symbol id="icon-rings" viewBox="0 0 24 24">
    <circle cx="9.5" cy="14" r="4.5" />
    <circle cx="14.5" cy="14" r="4.5" />
  </symbol>
  <symbol id="icon-champagne" viewBox="0 0 24 24">
    <path
      d="M12 4 C8.5 4 8 7 9.5 9.5 C10.5 11 12 11 12 11 C12 11 13.5 11 14.5 9.5 C16 7 15.5 4 12 4 Z"
    />
    <path d="M9.5 7.5 H14.5" />
    <path d="M12 11 V18" />
    <path d="M8.5 20 H15.5" />
  </symbol>
  <symbol id="icon-bowtie" viewBox="0 0 24 24">
    <path d="M4 9 L10 12 L4 15 Z" />
    <path d="M20 9 L14 12 L20 15 Z" />
    <circle cx="12" cy="12" r="1.3" />
  </symbol>
  <symbol id="icon-fork-knife" viewBox="0 0 24 24">
    <path d="M7 4 V10" />
    <path d="M8.5 4 V10" />
    <path d="M10 4 V10" />
    <path d="M7 10 C7 11.5 10 11.5 10 10" />
    <path d="M8.5 11.5 V20" />
    <path d="M15 4 C13.5 4.5 13.5 8 15 9 V20" />
  </symbol>
  <symbol id="icon-music" viewBox="0 0 24 24">
    <circle cx="8.5" cy="17" r="2.3" />
    <circle cx="17" cy="15" r="2.3" />
    <path d="M10.8 17 V6 L19.3 4 V15" />
  </symbol>
  <symbol id="icon-carriage" viewBox="0 0 24 24">
    <path d="M4 17 H18" />
    <path d="M5 17 V11 H15 L18 14 V17" />
    <circle cx="7.5" cy="19" r="1.6" />
    <circle cx="15.5" cy="19" r="1.6" />
  </symbol>
  <symbol id="icon-courtyard" viewBox="0 0 24 24">
    <path d="M5 20 V10 L12 4 L19 10 V20" />
    <path d="M9 20 V14 H15 V20" />
  </symbol>
  <symbol id="icon-confetti" viewBox="0 0 24 24">
    <path d="M6 6 L7.5 7.5" />
    <path d="M18 6 L16.5 7.5" />
    <path d="M6 18 L7.5 16.5" />
    <path d="M18 18 L16.5 16.5" />
    <path d="M12 4 V6.5" />
    <path d="M12 17.5 V20" />
    <path d="M4 12 H6.5" />
    <path d="M17.5 12 H20" />
    <circle cx="12" cy="12" r="1.2" />
  </symbol>
  <symbol id="icon-child" viewBox="0 0 24 24">
    <circle cx="12" cy="7" r="2.8" />
    <path d="M7 20 C7 14.5 9.5 12.5 12 12.5 C14.5 12.5 17 14.5 17 20" />
  </symbol>
  <symbol id="icon-paw" viewBox="0 0 24 24">
    <circle cx="12" cy="15.5" r="3.2" />
    <circle cx="7.5" cy="10.5" r="1.6" />
    <circle cx="12" cy="8.5" r="1.7" />
    <circle cx="16.5" cy="10.5" r="1.6" />
  </symbol>
  <symbol id="icon-no-smoking" viewBox="0 0 24 24">
    <path d="M4 15 H15 V17.5 H4 Z" />
    <path d="M15 15 V17.5" />
    <path d="M17 14.5 C17.5 15.5 17.5 16.5 17 17.5" />
    <path d="M5 20 L19 6" />
  </symbol>
  <symbol id="icon-car" viewBox="0 0 24 24">
    <path d="M4 16 L6 10 H17 L19.5 16" />
    <path d="M4 16 H19.5 V18.5 H4 Z" />
    <circle cx="8" cy="18.5" r="1.5" />
    <circle cx="16" cy="18.5" r="1.5" />
  </symbol>
  <symbol id="icon-train" viewBox="0 0 24 24">
    <path
      d="M6 6.5 H18 V16 C18 17.5 16.5 18.5 15 18.5 H9 C7.5 18.5 6 17.5 6 16 Z"
    />
    <path d="M6 12 H18" />
    <path d="M9 18.5 L7 21" />
    <path d="M15 18.5 L17 21" />
    <circle cx="9" cy="15" r="1" />
    <circle cx="15" cy="15" r="1" />
  </symbol>
  <symbol id="icon-map-pin" viewBox="0 0 24 24">
    <path
      d="M12 21 C12 21 6 14.5 6 10 C6 6.5 8.7 4 12 4 C15.3 4 18 6.5 18 10 C18 14.5 12 21 12 21 Z"
    />
    <circle cx="12" cy="10" r="2.2" />
  </symbol>
  <symbol id="icon-document" viewBox="0 0 24 24">
    <path d="M7 3.5 H14.5 L18 7 V20.5 H7 Z" />
    <path d="M14.5 3.5 V7 H18" />
    <path d="M9.5 12 H15.5" />
    <path d="M9.5 15 H15.5" />
    <path d="M9.5 18 H13" />
  </symbol>
</svg>
